<svg width="368" height="298" viewBox="0 0 368 298" fill="none" xmlns="http://www.w3.org/2000/svg">
<path d="M267.864 73.2205C252.361 46.8909 228.686 23.8186 200.909 10.5482C199.853 10.0355 198.617 10.1863 197.682 10.9101L164.385 36.8175C129.49 38.6874 95.7712 45.4131 66.4256 65.0472C65.4001 65.7408 64.8874 66.9472 65.1287 68.1536C66.8478 77.4127 74.0862 115.957 74.0862 115.957C57.4681 144.82 47.1835 178.599 50.6821 211.715C50.8027 212.861 51.5567 213.826 52.6425 214.248L99.511 232.525C115.013 258.855 138.689 281.927 166.466 295.198C167.522 295.71 168.758 295.559 169.693 294.836L202.99 268.958C237.885 267.088 271.604 260.363 300.949 240.729C301.975 240.035 302.487 238.798 302.246 237.592L293.289 189.819C309.907 160.926 320.191 127.146 316.662 94.061C316.542 92.9149 315.788 91.9498 314.702 91.5276L267.864 73.2205Z" fill="#6EDBFF" stroke="white" stroke-width="2" stroke-miterlimit="10" stroke-linecap="round" stroke-linejoin="round"/>
<path d="M261.59 131.821C261.59 131.821 267.26 132.937 267.441 132.364C267.622 131.791 264.335 130.584 264.335 130.584" fill="#6EDBFF"/>
<path d="M261.59 131.821C261.59 131.821 267.26 132.937 267.441 132.364C267.622 131.791 264.335 130.584 264.335 130.584" stroke="black" stroke-width="1.2" stroke-miterlimit="10" stroke-linecap="round" stroke-linejoin="round"/>
<path d="M221.598 145.664C223.77 146.298 226.032 146.66 228.384 146.66C237.945 146.66 245.967 141.894 250.612 138.094C251.366 137.491 252.12 136.888 252.874 136.315C253.899 135.561 255.166 134.686 255.498 134.475C257.669 133.058 267.321 129.891 266.959 129.016C266.717 128.413 263.098 129.227 260.776 129.83L255.498 128.805C255.618 127.81 255.287 126.995 255.287 126.995C255.287 126.995 256.373 121.325 255.407 121.235C254.442 121.144 253.417 126.483 252.422 127.78C251.879 128.473 249.134 130.072 246.812 131.338C246.329 131.61 245.817 131.851 245.274 132.032C243.675 132.666 241.956 133.269 240.116 133.721C238.277 134.174 236.316 134.445 234.235 134.445C231.852 134.445 229.44 133.6 227.087 132.243L220.422 143.342L221.598 145.664Z" fill="#6EDBFF"/>
<path d="M221.598 145.664C223.77 146.298 226.032 146.66 228.384 146.66C237.945 146.66 245.967 141.894 250.612 138.094C251.366 137.491 252.12 136.888 252.874 136.315C253.899 135.561 255.166 134.686 255.498 134.475C257.669 133.058 267.321 129.891 266.959 129.016C266.717 128.413 263.098 129.227 260.776 129.83L255.498 128.805C255.618 127.81 255.287 126.995 255.287 126.995C255.287 126.995 256.373 121.325 255.407 121.235C254.442 121.144 253.417 126.483 252.422 127.78C251.879 128.473 249.134 130.072 246.812 131.338C246.329 131.61 245.817 131.851 245.274 132.032C243.675 132.666 241.956 133.269 240.116 133.721C238.277 134.174 236.316 134.445 234.235 134.445C231.852 134.445 229.44 133.6 227.087 132.243L220.422 143.342L221.598 145.664Z" stroke="black" stroke-width="1.2" stroke-miterlimit="10" stroke-linecap="round" stroke-linejoin="round"/>
<path d="M257.489 129.77C263.818 129.77 268.949 124.639 268.949 118.309C268.949 111.98 263.818 106.849 257.489 106.849C251.159 106.849 246.028 111.98 246.028 118.309C246.028 124.639 251.159 129.77 257.489 129.77Z" fill="black" stroke="black" stroke-width="1.2" stroke-miterlimit="10" stroke-linecap="round" stroke-linejoin="round"/>
<path d="M198.979 85.8875L190.112 85.5558C190.112 85.5558 183.205 98.042 187.608 100.575C187.97 100.787 188.332 100.937 188.724 101.028L186.794 106.336C186.794 106.336 179.465 117.797 185.346 120.571C191.198 123.346 197.29 107.09 197.29 107.09C197.29 107.09 197.682 101.088 197.923 97.9214C198.617 97.9817 199.311 97.6499 199.703 97.0166C200.276 96.1118 200.004 94.9054 199.099 94.3323C198.557 94.0006 197.983 93.9704 197.441 94.1815C197.441 94.1815 200.276 90.4115 200.517 89.8083C200.728 89.2353 198.979 85.8875 198.979 85.8875Z" fill="#6EDBFF"/>
<path d="M191.499 86.3397C191.499 86.3397 185.195 97.71 188.483 100.937C188.211 100.847 187.91 100.726 187.608 100.545C183.205 98.0116 190.111 85.5254 190.111 85.5254L198.978 85.8572C198.978 85.8572 199.129 86.1588 199.37 86.6111L191.499 86.3397Z" fill="white"/>
<path d="M229.651 133.088L226.213 131.338C226.213 131.338 226.062 131.399 225.821 131.519C219.306 127.267 213.334 119.455 209.836 115.263C204.89 109.322 199.883 107.633 197.229 107.06C194.665 111.493 189.478 116.108 188.151 116.681C186.462 113.936 186.703 105.099 186.703 105.099C178.439 103.229 171.563 110.257 162.515 104.617C160.645 103.44 158.805 102.023 157.056 100.424C157.056 100.394 157.056 100.364 157.086 100.364L153.799 96.4434C153.769 96.6243 153.708 96.7751 153.678 96.9561C151.718 104.044 145.686 105.371 143.906 105.612C143.575 105.642 143.394 105.672 143.394 105.672L146.681 109.593C146.681 109.593 146.832 109.593 147.103 109.563C152.562 115.444 160.826 120.33 171.472 121.687C168.879 127.206 165.923 133.721 164.566 137.732C164.234 138.667 164.023 139.482 163.902 140.085C163.963 140.085 164.023 140.085 164.083 140.085L163.902 141.05L199.974 152.149L202.024 132.304C202.386 132.665 209.444 141.11 219.216 144.88C219.246 145.091 219.246 145.302 219.276 145.544L223.287 146.72C221.809 136.948 229.651 133.088 229.651 133.088Z" fill="white"/>
<path d="M265.059 54.8831C265.752 50.1782 270.035 22.2199 277.002 13.3228C279.113 10.729 281.315 8.467 288.312 5.17957C289.579 4.87797 290.815 4.72717 291.961 4.72717C297.631 4.72717 301.522 8.19556 306.77 13.5037C314.822 21.6167 314.34 27.4074 310.298 36.4856C310.178 36.6665 310.208 36.938 310.329 37.7523C310.389 38.2047 310.54 39.1095 310.51 39.4412C305.232 44.5383 298.808 48.1273 291.358 50.148C280.591 53.0434 268.044 54.5514 265.059 54.8831ZM294.072 14.3482C290.785 14.3482 287.679 15.6451 285.266 18.0277C280.35 22.8834 280.32 30.8457 285.175 35.7617C287.528 38.1444 290.695 39.4714 294.072 39.4714C297.39 39.4714 300.527 38.1745 302.909 35.8522C307.825 30.9663 307.886 23.0041 303.03 18.088C300.677 15.7054 297.42 14.3482 294.072 14.3482Z" fill="black"/>
<path d="M291.962 5.26995C297.451 5.26995 301.221 8.67802 306.408 13.8957C314.22 21.7976 313.767 27.4073 309.847 36.2442C309.635 36.6061 309.696 36.9982 309.816 37.8427C309.877 38.2046 309.967 38.8379 309.997 39.23C304.84 44.1763 298.506 47.6748 291.238 49.6352C281.195 52.3496 269.583 53.8576 265.693 54.31C266.627 48.097 270.82 22.1294 277.425 13.6846C279.506 11.1511 281.647 8.94946 288.524 5.69219C289.7 5.42075 290.876 5.26995 291.962 5.26995ZM294.073 39.984C297.541 39.984 300.799 38.6268 303.272 36.214C308.399 31.117 308.459 22.823 303.392 17.6958C300.949 15.2227 297.541 13.8354 294.043 13.8354C290.635 13.8354 287.377 15.1926 284.874 17.6657C279.747 22.7325 279.717 31.0265 284.784 36.1236C287.287 38.5967 290.574 39.984 294.073 39.984ZM291.962 4.21436C290.786 4.21436 289.519 4.36516 288.162 4.69691C281.225 7.95419 278.933 10.186 276.61 13.0211C268.829 22.8833 264.426 55.4862 264.426 55.4862C264.426 55.4862 279.023 54.0084 291.479 50.6305C298.808 48.6399 305.413 45.1112 310.963 39.7126C311.204 39.4713 310.631 36.8474 310.721 36.7569C314.733 27.7391 315.487 21.5563 307.132 13.1115C302.216 8.16531 298.084 4.21436 291.962 4.21436ZM294.073 38.9284C290.967 38.9284 287.89 37.7522 285.538 35.3696C280.863 30.6344 280.923 23.0643 285.628 18.3895C288.071 15.9466 291.117 14.8608 294.073 14.8608C297.27 14.8608 300.407 16.1577 302.669 18.4197C307.313 23.1246 307.283 30.7249 302.548 35.4299C300.195 37.7522 297.149 38.9284 294.073 38.9284Z" fill="black"/>
<path d="M109.675 50.5702C103.884 50.5702 98.3048 48.3987 94.0221 44.4478C89.7092 40.4667 87.0853 35.068 86.6329 29.2472C86.1503 23.0946 88.1107 17.0927 92.122 12.4179C96.1333 7.71299 101.743 4.87796 107.896 4.3954C108.499 4.33508 109.102 4.33508 109.735 4.33508C115.526 4.33508 121.106 6.5066 125.388 10.4575C129.701 14.4387 132.325 19.8373 132.778 25.6581C133.26 31.8108 131.3 37.8126 127.288 42.4874C123.277 47.1923 117.667 50.0274 111.515 50.5099C110.912 50.5401 110.278 50.5702 109.675 50.5702Z" fill="black"/>
<path d="M109.735 4.81756C115.405 4.81756 120.834 6.92875 125.026 10.7892C129.249 14.6799 131.812 19.9578 132.234 25.6581C133.2 38.084 123.88 48.9717 111.454 49.967C110.851 50.0273 110.248 50.0273 109.675 50.0273C104.005 50.0273 98.576 47.9161 94.3838 44.0556C90.1614 40.165 87.5978 34.887 87.1756 29.1868C86.693 23.1548 88.6232 17.3339 92.544 12.7496C96.4648 8.16531 101.954 5.36044 107.956 4.90804C108.529 4.84772 109.132 4.81756 109.735 4.81756ZM109.735 3.76196C109.132 3.76196 108.499 3.79212 107.865 3.82228C94.8362 4.84772 85.0945 16.218 86.12 29.2471C87.0851 41.6428 97.4601 51.0829 109.675 51.0829C110.278 51.0829 110.911 51.0527 111.545 51.0226C124.574 49.9971 134.316 38.6268 133.29 25.5977C132.325 13.202 121.98 3.76196 109.735 3.76196Z" fill="black"/>
<path d="M109.796 48.3083C104.005 48.3083 98.4254 46.1368 94.1427 42.1858C89.8298 38.2047 87.2059 32.8061 86.7535 26.9852C85.7582 14.2577 95.2888 3.09857 108.016 2.10329C108.619 2.04297 109.223 2.04297 109.856 2.04297C115.647 2.04297 121.196 4.21448 125.479 8.13527C129.792 12.1164 132.416 17.515 132.868 23.3359C133.863 36.0634 124.333 47.2225 111.605 48.1877C111.002 48.2781 110.399 48.3083 109.796 48.3083Z" fill="white"/>
<path d="M109.856 2.5556C115.526 2.5556 120.955 4.66679 125.147 8.52726C129.369 12.4179 131.933 17.6959 132.355 23.3961C133.32 35.822 124.001 46.7097 111.575 47.705C110.972 47.7653 110.368 47.7653 109.795 47.7653C104.125 47.7653 98.6965 45.6541 94.5043 41.7937C90.2819 37.903 87.7183 32.625 87.2961 26.9248C86.8135 20.8928 88.7437 15.072 92.6645 10.4877C96.5853 5.90335 102.074 3.09848 108.076 2.64608C108.649 2.58576 109.252 2.5556 109.856 2.5556ZM109.826 1.5C109.222 1.5 108.589 1.53016 107.956 1.56032C94.9265 2.58576 85.1849 13.956 86.2103 26.9851C87.1754 39.3809 97.5504 48.8209 109.765 48.8209C110.368 48.8209 111.002 48.7908 111.635 48.7606C124.664 47.7352 134.406 36.3649 133.38 23.3358C132.445 10.9099 122.07 1.5 109.826 1.5Z" fill="black"/>
<path d="M198.104 46.0462C198.044 46.0462 197.983 46.0462 197.893 46.0462L138.629 38.0538C137.603 37.903 136.91 36.9681 137.03 35.9728L138.478 26.0804C138.478 26.0502 138.478 26.0502 138.478 26.02V25.9597C138.568 25.4772 138.84 25.0851 139.232 24.7835C139.353 24.693 141.253 23.4564 142.7 22.5215C143.303 23.0945 143.937 23.7279 144.178 24.0295C144.148 24.0596 143.756 24.8136 143.756 24.8136L200.577 32.5346C201.603 32.6854 202.296 33.6203 202.176 34.6156L201.06 42.8493L203.05 44.5081C201.904 44.87 200.034 45.4732 199.22 45.7446L198.949 45.8351C198.647 45.9557 198.376 46.0462 198.104 46.0462Z" fill="#6EDBFF"/>
<path d="M142.7 23.1851C143.032 23.5168 143.364 23.8486 143.605 24.0899L143.002 25.2058L144.51 25.4169L200.577 33.0474C201.301 33.1379 201.814 33.8315 201.723 34.5554L200.637 42.4874L200.547 43.0605L200.999 43.4224L202.025 44.2669C200.969 44.5986 199.732 44.9907 199.129 45.2018C199.039 45.232 198.948 45.2621 198.858 45.2923C198.496 45.4129 198.285 45.5034 198.104 45.5034C198.074 45.5034 198.013 45.5034 197.983 45.5034L138.719 37.511C138.357 37.4507 138.055 37.2698 137.844 36.9983C137.633 36.7269 137.543 36.365 137.573 36.0332L139.021 26.1407L139.051 26.0503C139.111 25.7185 139.292 25.4169 139.594 25.2058C139.714 25.1153 141.313 24.0597 142.7 23.1851ZM142.821 21.8279C142.821 21.8279 139.141 24.2105 138.99 24.3312C138.508 24.6629 138.146 25.2058 138.025 25.8391C138.025 25.8693 137.995 25.9296 137.995 25.9598L136.547 35.8522C136.366 37.1491 137.271 38.3555 138.598 38.5365L197.863 46.5289C197.953 46.5289 198.044 46.559 198.134 46.559C198.586 46.559 198.948 46.4082 199.491 46.1971C200.667 45.805 204.226 44.6891 204.226 44.6891L201.723 42.6081L202.809 34.676C202.99 33.3791 202.085 32.1727 200.758 31.9918L144.63 24.3915C144.751 24.1804 144.811 24.0296 144.811 23.9994C144.811 23.6978 142.821 21.8279 142.821 21.8279Z" fill="black"/>
<path d="M203.171 44.3874C203.081 44.3874 202.99 44.3874 202.93 44.3573L142.278 36.1236C141.796 36.0633 141.343 35.7919 141.042 35.3998C140.74 35.0077 140.619 34.5252 140.68 34.0124L142.097 23.6374C142.218 22.7326 143.002 22.0389 143.937 22.0389C144.027 22.0389 144.118 22.0389 144.178 22.0691L204.83 30.3028C205.312 30.3631 205.765 30.6345 206.066 31.0266C206.368 31.4187 206.489 31.9012 206.428 32.414L205.011 42.789C204.89 43.7239 204.106 44.3874 203.171 44.3874Z" fill="#6EDBFF"/>
<path d="M143.937 22.612C143.997 22.612 144.057 22.612 144.118 22.612L204.769 30.8457C205.493 30.9361 206.006 31.6298 205.915 32.3536L204.498 42.7287C204.407 43.3922 203.834 43.8747 203.171 43.8747C203.11 43.8747 203.05 43.8747 202.99 43.8747L142.338 35.6411C141.614 35.5506 141.102 34.8569 141.192 34.1331L142.61 23.7581C142.7 23.1247 143.273 22.612 143.937 22.612ZM143.937 21.5564C142.76 21.5564 141.735 22.431 141.584 23.6073L140.167 33.9823C139.986 35.2792 140.89 36.4856 142.217 36.6665L202.869 44.9002C202.99 44.9002 203.08 44.9303 203.201 44.9303C204.377 44.9303 205.402 44.0557 205.553 42.8795L206.971 32.5044C207.152 31.2076 206.247 30.0012 204.92 29.8202L144.238 21.5866C144.148 21.5866 144.027 21.5564 143.937 21.5564Z" fill="black"/>
<path d="M137.241 37.2998L141.102 35.6108" stroke="black" stroke-width="1.2" stroke-miterlimit="10"/>
<path d="M150.934 25.9598L151.628 28.0408C151.688 28.2519 151.839 28.4027 152.05 28.4329L154.161 29.0361C154.674 29.1869 154.795 29.8504 154.372 30.152L152.593 31.4791C152.412 31.5997 152.322 31.8108 152.352 32.0219L152.442 34.2236C152.472 34.7363 151.869 35.0681 151.447 34.7665L149.637 33.4998C149.456 33.3791 149.245 33.349 149.064 33.4093L146.983 34.1633C146.501 34.3443 146.018 33.8919 146.169 33.3791L146.832 31.2679C146.893 31.0568 146.863 30.8457 146.742 30.6949L145.385 28.9456C145.053 28.5234 145.355 27.9202 145.867 27.9202L148.069 27.89C148.28 27.89 148.461 27.7694 148.582 27.6186L149.818 25.7788C150.12 25.3566 150.783 25.4471 150.934 25.9598Z" fill="white"/>
<path d="M162.696 27.5582L163.39 29.6392C163.45 29.8503 163.601 30.0011 163.812 30.0313L165.923 30.6345C166.436 30.7853 166.557 31.4488 166.135 31.7504L164.355 33.0774C164.174 33.1981 164.084 33.4092 164.114 33.6203L164.204 35.822C164.235 36.3347 163.631 36.6665 163.209 36.3649L161.399 35.0982C161.219 34.9775 161.007 34.9474 160.826 35.0077L158.745 35.7617C158.263 35.9426 157.78 35.4902 157.931 34.9775L158.595 32.8663C158.655 32.6552 158.625 32.4441 158.504 32.2933L157.147 30.544C156.815 30.1218 157.117 29.5186 157.63 29.5186L159.831 29.4884C160.042 29.4884 160.223 29.3678 160.344 29.217L161.58 27.3772C161.852 26.955 162.515 27.0455 162.696 27.5582Z" fill="white"/>
<path d="M174.459 29.1567L175.152 31.2377C175.213 31.4488 175.363 31.5996 175.574 31.6298L177.686 32.233C178.198 32.3838 178.319 33.0473 177.897 33.3489L176.117 34.676C175.936 34.7966 175.846 35.0077 175.876 35.2188L175.967 37.4205C175.997 37.9332 175.394 38.265 174.971 37.9634L173.162 36.6967C172.981 36.576 172.77 36.5459 172.589 36.6062L170.508 37.3602C170.025 37.5412 169.543 37.0888 169.693 36.576L170.357 34.4648C170.417 34.2537 170.387 34.0426 170.266 33.8918L168.909 32.1425C168.577 31.7203 168.879 31.1171 169.392 31.1171L171.593 31.0869C171.805 31.0869 171.985 30.9663 172.106 30.8155L173.343 28.9757C173.614 28.5535 174.278 28.644 174.459 29.1567Z" fill="white"/>
<path d="M186.191 30.7249L186.884 32.8059C186.945 33.0171 187.095 33.1679 187.306 33.198L189.418 33.8012C189.93 33.952 190.051 34.6155 189.629 34.9171L187.849 36.2442C187.668 36.3648 187.578 36.5759 187.608 36.7871L187.699 38.9887C187.729 39.5014 187.125 39.8332 186.703 39.5316L184.894 38.2649C184.713 38.1442 184.502 38.1141 184.321 38.1744L182.24 38.9284C181.757 39.1094 181.274 38.657 181.425 38.1442L182.089 36.0331C182.149 35.8219 182.119 35.6108 181.998 35.46L180.641 33.7107C180.309 33.2885 180.611 32.6853 181.124 32.6853L183.325 32.6551C183.536 32.6551 183.717 32.5345 183.838 32.3837L185.075 30.5439C185.376 30.1519 186.04 30.2423 186.191 30.7249Z" fill="white"/>
<path d="M197.953 32.3235L198.647 34.4046C198.707 34.6157 198.858 34.7665 199.069 34.7967L201.18 35.3999C201.693 35.5507 201.814 36.2142 201.391 36.5158L199.612 37.8428C199.431 37.9634 199.341 38.1746 199.371 38.3857L199.461 40.5874C199.491 41.1001 198.888 41.4318 198.466 41.1302L196.656 39.8635C196.475 39.7429 196.264 39.7127 196.083 39.773L194.002 40.527C193.52 40.708 193.037 40.2556 193.188 39.7429L193.851 37.6317C193.912 37.4206 193.882 37.2095 193.761 37.0587L192.404 35.3094C192.072 34.8871 192.374 34.2839 192.886 34.2839L195.088 34.2538C195.299 34.2538 195.48 34.1331 195.601 33.9823L196.837 32.1426C197.109 31.7505 197.772 31.841 197.953 32.3235Z" fill="white"/>
<path d="M128.615 65.8612C128.404 65.8612 128.253 65.7104 128.223 65.5295L124.544 46.7097C124.513 46.4986 124.634 46.2573 124.875 46.2271L150.3 41.2809C150.33 41.2809 150.361 41.2809 150.391 41.2809C150.602 41.2809 150.753 41.4317 150.783 41.6126L154.462 60.4324C154.492 60.6436 154.372 60.8848 154.131 60.915L128.706 65.8612C128.645 65.8311 128.645 65.8612 128.615 65.8612Z" fill="white"/>
<path d="M150.27 41.7938L153.889 60.3723L128.675 65.2883L125.056 46.7098L150.27 41.7938ZM150.36 40.7382C150.3 40.7382 150.24 40.7382 150.18 40.7683L124.755 45.7145C124.242 45.805 123.91 46.3177 124.001 46.8305L127.68 65.6503C127.771 66.1027 128.163 66.4043 128.615 66.4043C128.675 66.4043 128.736 66.4043 128.796 66.3741L154.221 61.4279C154.734 61.3374 155.065 60.8247 154.975 60.3119L151.295 41.4922C151.205 41.0398 150.813 40.7382 150.36 40.7382Z" fill="black"/>
<path d="M128.133 63.4486C127.952 63.4486 127.771 63.2978 127.741 63.1169L124.062 44.3272C124.031 44.2066 124.062 44.1161 124.122 44.0256C124.182 43.9351 124.273 43.8748 124.393 43.8447L149.818 38.8984C149.848 38.8984 149.879 38.8984 149.909 38.8984C150.12 38.8984 150.271 39.0492 150.301 39.2302L153.98 58.05C154.01 58.1706 153.98 58.2611 153.92 58.3516C153.86 58.4421 153.769 58.5024 153.649 58.5325L128.224 63.4788C128.194 63.4486 128.163 63.4486 128.133 63.4486Z" fill="white"/>
<path d="M149.818 39.4111L153.437 57.9896L128.223 62.9056L124.604 44.3271L149.818 39.4111ZM149.908 38.3555C149.848 38.3555 149.788 38.3555 149.727 38.3856L124.303 43.3319C123.79 43.4223 123.458 43.9351 123.549 44.4478L127.228 63.2676C127.319 63.72 127.711 64.0216 128.163 64.0216C128.223 64.0216 128.284 64.0216 128.344 63.9914L153.769 59.0452C154.282 58.9547 154.613 58.442 154.523 57.9293L150.813 39.1095C150.753 38.6571 150.331 38.3555 149.908 38.3555Z" fill="black"/>
<path d="M130.244 59.6484C131.209 56.9943 133.562 50.5401 134.346 48.2781C136.216 49.9369 141.765 55.0641 142.941 56.1197C143.092 56.2403 143.273 56.3308 143.454 56.3308C143.786 56.3308 144.057 56.1498 144.178 55.8482L146.138 50.8115L150.602 55.6974L130.244 59.6484Z" fill="black"/>
<path d="M134.587 49.183C136.819 51.2037 141.523 55.5165 142.579 56.4817C142.639 56.542 142.73 56.6023 142.79 56.6325L131.058 58.9246C131.993 56.4213 133.712 51.6561 134.587 49.183ZM146.349 51.7767L149.606 55.3356L144.509 56.3309C144.57 56.2404 144.63 56.1197 144.69 56.0293L146.349 51.7767ZM134.255 47.5242C134.164 47.5242 134.044 47.5845 134.014 47.7051C133.32 49.6655 130.304 57.9595 129.58 59.9199C129.52 60.1009 129.64 60.2517 129.821 60.2517C129.852 60.2517 129.852 60.2517 129.882 60.2517L151.235 56.0896C151.416 56.0594 151.506 55.8181 151.386 55.6673L146.289 50.0878C146.228 50.0274 146.168 49.9973 146.108 49.9973C146.017 49.9973 145.927 50.0576 145.867 50.1481L143.725 55.607C143.695 55.6975 143.605 55.7578 143.484 55.7578C143.424 55.7578 143.363 55.7277 143.303 55.6975C141.946 54.4609 135.853 48.821 134.376 47.5845C134.345 47.5543 134.285 47.5242 134.255 47.5242Z" fill="black"/>
<path d="M142.972 48.248C142.218 48.248 141.585 47.7051 141.434 46.9812C141.343 46.559 141.434 46.1368 141.675 45.805C141.916 45.4732 142.278 45.232 142.67 45.1415C142.761 45.1113 142.882 45.1113 142.972 45.1113C143.726 45.1113 144.359 45.6542 144.51 46.378C144.601 46.8003 144.51 47.2225 144.269 47.5543C144.028 47.9162 143.666 48.1273 143.274 48.2178C143.153 48.248 143.062 48.248 142.972 48.248Z" fill="black"/>
<path d="M142.971 45.6542C143.454 45.6542 143.906 46.0162 143.997 46.4987C144.057 46.7701 143.997 47.0416 143.846 47.2829C143.695 47.5241 143.454 47.6749 143.182 47.7353C143.122 47.7353 143.062 47.7654 142.971 47.7654C142.489 47.7654 142.036 47.4035 141.946 46.921C141.885 46.6495 141.946 46.3781 142.097 46.1368C142.247 45.8955 142.489 45.7447 142.76 45.6844C142.82 45.6542 142.911 45.6542 142.971 45.6542ZM142.971 44.5986C142.851 44.5986 142.7 44.5986 142.579 44.6288C141.433 44.8399 140.709 45.9558 140.92 47.1019C141.101 48.0972 142.006 48.7909 142.971 48.7909C143.092 48.7909 143.243 48.7909 143.363 48.7607C144.509 48.5496 145.233 47.4337 145.022 46.2876C144.841 45.2923 143.936 44.5986 142.971 44.5986Z" fill="black"/>
<path d="M273.805 100.304L238.971 96.2322C238.006 96.1115 237.312 95.2369 237.433 94.3019L241.987 55.275C242.047 54.7924 242.288 54.3702 242.65 54.0987C243.012 53.8273 246.933 50.6907 246.933 50.6907L278.782 57.8084C279.747 57.9291 280.441 58.8037 280.32 59.7387L279.596 96.3226C279.596 96.3226 275.464 99.6402 275.163 99.9117C274.771 100.213 274.318 100.364 273.805 100.304Z" fill="white" stroke="black" stroke-width="1.2" stroke-miterlimit="10"/>
<path d="M278.329 96.6545L243.494 92.5829C242.529 92.4623 241.835 91.5877 241.956 90.6527L246.51 51.6258C246.631 50.6606 247.505 49.967 248.44 50.0876L283.275 54.1592C284.24 54.2798 284.934 55.1545 284.813 56.0894L280.259 95.1164C280.169 96.0815 279.294 96.7752 278.329 96.6545Z" fill="#6EDBFF" stroke="black" stroke-width="1.2" stroke-miterlimit="10"/>
<path d="M190.111 85.5558C190.111 85.5558 183.205 98.042 187.608 100.575C190.896 102.445 194.394 99.5198 194.394 99.5198" stroke="black" stroke-width="1.2" stroke-miterlimit="10" stroke-linecap="round" stroke-linejoin="round"/>
<path d="M189.538 86.6416C189.538 86.6416 194.756 84.8621 198.164 89.9592C197.862 90.8941 196.747 93.8196 196.747 93.8196L199.913 95.4483C199.913 95.4483 202.236 91.8592 201.874 88.7829C201.512 85.7066 196.988 82.9319 196.927 79.7651C195.781 80.4889 195.329 82.5097 195.329 82.5097C195.329 82.5097 193.519 79.2524 194.273 76.538C193.278 77.0205 192.253 77.6841 191.68 78.4984C191.288 78.0158 191.046 75.3919 191.438 74.3062C189.991 75.3617 184.803 81.062 189.538 86.6416Z" fill="black" stroke="black" stroke-width="1.2" stroke-miterlimit="10" stroke-linecap="round" stroke-linejoin="round"/>
<path d="M189.72 90.1399C189.72 90.1399 187.488 88.1192 186.734 88.9033C185.98 89.7176 188.483 92.3114 188.483 92.3114" fill="white"/>
<path d="M189.72 90.1399C189.72 90.1399 187.488 88.1192 186.734 88.9033C185.98 89.7176 188.483 92.3114 188.483 92.3114" stroke="black" stroke-width="1.2" stroke-miterlimit="10" stroke-linecap="round" stroke-linejoin="round"/>
<path d="M189.388 95.4182C189.388 95.4182 191.197 95.9309 192.343 94.3022Z" fill="white"/>
<path d="M189.388 95.4182C189.388 95.4182 191.197 95.9309 192.343 94.3022" stroke="black" stroke-width="1.2" stroke-miterlimit="10" stroke-linecap="round" stroke-linejoin="round"/>
<path d="M197.41 94.1815C197.953 93.9704 198.526 94.0005 199.069 94.3323C199.974 94.9053 200.245 96.1117 199.672 97.0165C199.159 97.8308 198.134 98.1324 197.259 97.7705" fill="#6EDBFF"/>
<path d="M197.41 94.1815C197.953 93.9704 198.526 94.0005 199.069 94.3323C199.974 94.9053 200.245 96.1117 199.672 97.0165C199.159 97.8308 198.134 98.1324 197.259 97.7705" stroke="black" stroke-width="1.2" stroke-miterlimit="10" stroke-linecap="round" stroke-linejoin="round"/>
<path d="M197.259 107.09C197.259 107.09 197.802 98.223 197.893 97.9214" stroke="black" stroke-width="1.2" stroke-miterlimit="10" stroke-linecap="round" stroke-linejoin="round"/>
<path d="M188.694 101.028L186.733 105.16" stroke="black" stroke-width="1.2" stroke-miterlimit="10" stroke-linecap="round" stroke-linejoin="round"/>
<path d="M175.001 114.419C171.955 120.602 164.807 135.501 163.902 140.115C167.672 139.934 187.879 142.829 199.943 150.128C200.848 142.468 202.839 124.884 202.839 124.884" stroke="black" stroke-width="1.2" stroke-miterlimit="10" stroke-linecap="round" stroke-linejoin="round"/>
<path d="M178.591 142.287C178.591 142.287 162.184 138.848 148.853 138.848C135.522 138.848 110.912 153.174 110.912 153.174L108.077 186.35C108.077 186.35 139.443 161.589 142.58 160.986C145.716 160.352 167.944 160.352 173.373 163.006C174.76 166.384 183.296 192.895 183.416 195.67C183.537 198.444 181.003 236.687 181.003 236.687L195.902 233.37C195.902 233.37 201.874 199.198 201.874 193.8C201.874 188.401 200.034 149.736 200.034 149.736C200.034 149.736 187.035 143.795 178.591 142.287Z" fill="black" stroke="black" stroke-width="1.2" stroke-miterlimit="10" stroke-linecap="round" stroke-linejoin="round"/>
<path d="M188.97 237.119C193.083 236.128 196.171 234.301 195.866 233.038C195.562 231.774 191.981 231.554 187.868 232.545C183.754 233.537 180.667 235.364 180.971 236.627C181.276 237.89 184.857 238.111 188.97 237.119Z" fill="black" stroke="black" stroke-width="1.2" stroke-miterlimit="10" stroke-linecap="round" stroke-linejoin="round"/>
<path d="M180.973 236.627C180.973 236.627 179.646 242.417 180.309 247.545C180.973 252.702 206.82 240.728 206.82 240.728C206.82 240.728 204.859 236.054 194.364 233.973C185.708 232.796 180.973 236.627 180.973 236.627Z" fill="#6EDBFF" stroke="black" stroke-width="1.2" stroke-miterlimit="10" stroke-linecap="round" stroke-linejoin="round"/>
<path d="M194.634 249.085C202.026 247.489 207.509 243.833 206.88 240.919C206.251 238.004 199.748 236.935 192.356 238.531C184.964 240.126 179.482 243.783 180.111 246.697C180.74 249.612 187.242 250.681 194.634 249.085Z" fill="#6EDBFF" stroke="black" stroke-width="1.2" stroke-miterlimit="10" stroke-linecap="round" stroke-linejoin="round"/>
<path d="M188.091 247.424C185.346 247.424 183.808 246.941 183.024 246.579C182.632 246.398 182.541 245.886 182.813 245.554C183.838 244.348 186.975 242.176 192.434 240.94C194.635 240.427 196.867 240.155 198.888 240.155C201.602 240.155 203.141 240.608 203.925 241C204.317 241.211 204.437 241.724 204.136 242.055C203.08 243.262 199.974 245.403 194.545 246.64C192.313 247.152 190.111 247.424 188.091 247.424Z" fill="#6EDBFF" stroke="black" stroke-width="1.2" stroke-miterlimit="10" stroke-linecap="round" stroke-linejoin="round"/>
<path d="M158.172 279.906H211.706" stroke="black" stroke-width="1.2" stroke-miterlimit="10" stroke-linecap="round" stroke-linejoin="round"/>
<path d="M216.08 279.906H231.431" stroke="black" stroke-width="1.2" stroke-miterlimit="10" stroke-linecap="round" stroke-linejoin="round"/>
<path d="M221.598 145.664C210.047 142.287 201.572 131.64 202.024 132.273" stroke="black" stroke-width="1.2" stroke-miterlimit="10" stroke-linecap="round" stroke-linejoin="round"/>
<path d="M117.189 169.363C117.882 160.745 114.944 153.479 110.627 153.132C106.31 152.785 102.249 159.489 101.556 168.106C100.864 176.724 103.802 183.99 108.119 184.337C112.436 184.684 116.497 177.98 117.189 169.363Z" fill="black" stroke="black" stroke-width="1.2" stroke-miterlimit="10" stroke-linecap="round" stroke-linejoin="round"/>
<path d="M114.863 169.992C115.656 160.129 112.556 151.833 107.94 151.462C103.325 151.092 98.9403 158.786 98.1476 168.648C97.355 178.511 100.454 186.807 105.07 187.178C109.686 187.549 114.07 179.854 114.863 169.992Z" fill="#6EDBFF" stroke="black" stroke-width="1.2" stroke-miterlimit="10" stroke-linecap="round" stroke-linejoin="round"/>
<path d="M111.786 163.67C112.721 175.824 109.192 184.631 105.634 187.737C102.768 189.366 99.8127 190.12 98.0936 190.361C96.7967 190.542 97.5205 190.18 96.8269 188.974C94.4744 184.842 94.776 172.959 94.203 165.268C93.268 152.33 92.333 141.321 96.9777 141.231C107.232 141.05 110.851 150.731 111.786 163.67Z" fill="#6EDBFF" stroke="black" stroke-width="1.2" stroke-miterlimit="10" stroke-linecap="round" stroke-linejoin="round"/>
<path d="M108.68 160.443C108.74 174.015 105.302 190.422 97.5506 190.422C90.4027 190.422 85.8787 173.954 85.7883 160.382C85.6978 146.81 90.9758 141.231 97.3093 141.261C103.643 141.291 108.589 146.871 108.68 160.443Z" fill="#6EDBFF" stroke="black" stroke-width="1.2" stroke-miterlimit="10" stroke-linecap="round" stroke-linejoin="round"/>
<path d="M104.88 170.727C105.302 167.53 105.513 164.032 105.483 160.443C105.453 155.617 104.608 144.428 97.2793 144.428C95.5301 144.428 94.0221 145.061 92.7855 146.298C90.3124 148.801 88.9552 153.778 88.9854 160.352C89.0155 163.791 89.3171 167.35 89.8902 170.727H104.88V170.727Z" fill="#6EDBFF" stroke="black" stroke-width="1.2" stroke-miterlimit="10" stroke-linecap="round" stroke-linejoin="round"/>
<path d="M90.8247 175.432C91.1866 176.85 91.5787 178.177 92.0009 179.413C93.901 184.812 96.1329 187.225 97.5202 187.225C97.9726 187.225 98.6361 187.104 99.5711 186.199C101.441 184.299 103.009 180.409 104.065 175.432H90.8247Z" fill="#6EDBFF" stroke="black" stroke-width="1.2" stroke-miterlimit="10" stroke-linecap="round" stroke-linejoin="round"/>
<path d="M205.855 270.678C200.426 279.695 188.724 282.591 179.737 277.162C176.449 275.171 173.976 272.336 172.408 269.109C173.433 270.105 174.609 271.009 175.876 271.763C184.864 277.192 196.566 274.297 201.995 265.279C205.433 259.579 205.523 252.793 202.839 247.213C209.022 253.275 210.5 262.987 205.855 270.678Z" fill="#6EDBFF"/>
<path d="M201.994 265.309C196.566 274.327 184.894 277.222 175.876 271.793C174.609 271.009 173.433 270.134 172.408 269.139C169.723 263.56 169.814 256.774 173.252 251.073C178.681 242.086 190.353 239.16 199.371 244.589C200.637 245.373 201.814 246.248 202.839 247.243C205.523 252.823 205.433 259.609 201.994 265.309Z" fill="white"/>
<path d="M189.569 279.906C200.079 279.906 208.599 271.386 208.599 260.875C208.599 250.365 200.079 241.844 189.569 241.844C179.058 241.844 170.538 250.365 170.538 260.875C170.538 271.386 179.058 279.906 189.569 279.906Z" stroke="black" stroke-width="1.2" stroke-miterlimit="10" stroke-linecap="round" stroke-linejoin="round"/>
<path d="M108.408 36.4552C108.288 36.4552 108.107 36.3949 108.046 36.214L101.049 17.0624C100.989 16.9116 101.049 16.7608 101.079 16.7005C101.14 16.5799 101.26 16.5195 101.381 16.5195C101.411 16.5195 101.441 16.5195 101.471 16.5195L118.783 21.1038C118.904 21.134 118.994 21.2245 119.055 21.3451C119.115 21.4658 119.085 21.5864 118.994 21.707L108.71 36.3044C108.619 36.4251 108.469 36.4552 108.408 36.4552Z" fill="black"/>
<path d="M101.652 17.1228L118.451 21.5563L108.438 35.7616L101.652 17.1228ZM101.411 16.0068C100.808 16.0068 100.325 16.61 100.566 17.2434L107.533 36.3949C107.684 36.787 108.046 36.9981 108.408 36.9981C108.679 36.9981 108.981 36.8775 109.162 36.6061L119.446 22.0087C119.808 21.4959 119.537 20.7721 118.934 20.5911L101.652 16.037C101.592 16.0068 101.501 16.0068 101.411 16.0068Z" fill="black"/>
<path d="M102.497 181.042H92.6348" stroke="black" stroke-width="1.2" stroke-miterlimit="10" stroke-linecap="round" stroke-linejoin="round"/>
<path d="M105.483 162.011H89.0156" stroke="black" stroke-width="1.2" stroke-miterlimit="10" stroke-linecap="round" stroke-linejoin="round"/>
<path d="M104.82 153.325H89.5586" stroke="black" stroke-width="1.2" stroke-miterlimit="10" stroke-linecap="round" stroke-linejoin="round"/>
<path d="M243.585 53.3449C243.585 53.3147 242.801 51.7464 242.771 51.7162L237.161 40.0745C235.201 36.0029 236.92 31.1472 240.961 29.1868" stroke="black" stroke-width="1.2" stroke-miterlimit="10"/>
<path d="M253.568 36.4856L257.489 44.6288C259.45 48.7004 257.73 53.5561 253.689 55.5165C252.844 55.9086 251.97 56.18 251.095 56.2705" stroke="black" stroke-width="1.2" stroke-miterlimit="10" stroke-linecap="round" stroke-linejoin="round"/>
<path d="M240.961 29.1869C241.986 28.7043 243.042 28.4329 244.098 28.3726" stroke="black" stroke-width="1.2" stroke-miterlimit="10" stroke-linecap="round" stroke-linejoin="round"/>
<path d="M233.482 32.4442L229.953 25.1154C227.993 21.0438 229.712 16.188 233.753 14.2276C237.825 12.2672 242.681 13.9863 244.641 18.0278L250.251 29.6695C252.211 33.7411 250.492 38.5968 246.451 40.5572C245.063 41.2208 243.555 41.462 242.108 41.3414" stroke="black" stroke-width="1.2" stroke-miterlimit="10" stroke-linecap="round" stroke-linejoin="round"/>
<path d="M259.751 65.3787L274.65 67.0073C275.163 67.0676 275.494 67.6105 275.283 68.0931L272.328 75.241C272.207 75.5727 271.845 75.7537 271.513 75.7235L258.907 74.3362L258.484 78.076L271.302 79.4935C271.513 79.5237 271.664 79.7046 271.664 79.9459L271.544 80.9713C271.513 81.1825 271.332 81.3333 271.091 81.3333L255.498 79.6141C255.076 79.5538 254.744 79.1618 254.805 78.7395L256.252 65.5898L251.94 65.1072C251.728 65.0771 251.578 64.8961 251.578 64.6548L251.789 62.7246C251.819 62.5135 252 62.3627 252.241 62.3627L259.57 63.177C259.781 63.2071 259.932 63.3881 259.932 63.5992L259.751 65.3787Z" fill="black"/>
<path d="M271.193 85.0394C271.323 83.8472 270.503 82.7792 269.361 82.6541C268.218 82.5289 267.186 83.3939 267.055 84.5862C266.925 85.7784 267.745 86.8463 268.888 86.9715C270.03 87.0967 271.062 86.2316 271.193 85.0394Z" fill="black"/>
<path d="M258.058 83.5945C258.189 82.4023 257.368 81.3343 256.226 81.2091C255.083 81.084 254.051 81.949 253.921 83.1412C253.79 84.3334 254.61 85.4014 255.753 85.5266C256.895 85.6517 257.927 84.7867 258.058 83.5945Z" fill="black"/>
<path d="M268.105 51.9273C268.678 47.1621 272.448 17.9371 280.018 10.4273C283.999 6.47632 289.277 4.30481 294.857 4.30481C300.527 4.30481 305.835 6.53664 309.816 10.5479C317.989 18.7816 317.899 32.1424 309.635 40.3158C302.095 47.8256 272.87 51.3844 268.105 51.9273ZM295.792 11.9353C292.444 11.9353 289.307 13.2321 286.895 15.6148C282.009 20.5007 281.979 28.4327 286.834 33.3488C289.187 35.7314 292.354 37.0585 295.731 37.0585C299.049 37.0585 302.186 35.7616 304.568 33.4393C309.484 28.5534 309.545 20.5912 304.689 15.6751C302.306 13.2623 299.17 11.9353 295.792 11.9353Z" fill="white"/>
<path d="M294.887 4.81756C300.407 4.81756 305.594 6.98907 309.485 10.9099C313.345 14.8005 315.456 19.9578 315.426 25.4469C315.396 30.9361 313.225 36.0934 309.334 39.9539C306.016 43.2413 297.783 46.2573 285.447 48.7304C278.209 50.1781 271.483 51.0226 268.739 51.3543C269.07 48.6098 269.975 41.8841 271.483 34.6457C274.047 22.3405 277.123 14.1068 280.441 10.8194C284.271 6.95891 289.428 4.81756 294.887 4.81756ZM295.732 37.5712C299.2 37.5712 302.457 36.214 304.931 33.8012C307.434 31.3281 308.791 28.0407 308.821 24.5422C308.851 21.0436 307.494 17.7562 305.051 15.2831C302.578 12.7798 299.291 11.4226 295.792 11.4226C292.324 11.4226 289.036 12.7798 286.533 15.2529C284.06 17.6958 282.673 20.9833 282.673 24.4517C282.642 27.9502 284 31.2377 286.473 33.7108C288.946 36.214 292.233 37.5712 295.732 37.5712ZM294.887 3.76196C289.398 3.76196 283.879 5.843 279.687 10.0352C271.242 18.4197 267.532 52.5004 267.532 52.5004C267.532 52.5004 301.643 49.032 310.058 40.6777C318.533 32.2631 318.593 18.6006 310.239 10.1559C305.986 5.90332 300.437 3.76196 294.887 3.76196ZM295.732 36.5156C292.625 36.5156 289.549 35.3394 287.197 32.9568C282.492 28.2217 282.582 20.6515 287.257 15.9767C289.609 13.6243 292.686 12.448 295.762 12.448C298.838 12.448 301.915 13.6243 304.267 16.0069C308.912 20.7118 308.881 28.3121 304.146 33.0171C301.854 35.3696 298.808 36.5156 295.732 36.5156Z" fill="black"/>
<path d="M254.141 93.8497L253.085 107.301L267.562 95.418L254.141 93.8497Z" fill="#6EDBFF" stroke="black" stroke-width="1.2" stroke-miterlimit="10"/>
<path d="M254.141 93.8497L250.28 97.5594L249.285 109.985L253.085 107.301L254.141 93.8497Z" fill="white" stroke="black" stroke-width="1.2" stroke-miterlimit="10" stroke-linecap="round" stroke-linejoin="round"/>
<path d="M258.605 128.172C264.934 128.172 270.066 123.041 270.066 116.711C270.066 110.381 264.934 105.25 258.605 105.25C252.275 105.25 247.144 110.381 247.144 116.711C247.144 123.041 252.275 128.172 258.605 128.172Z" fill="white" stroke="black" stroke-width="1.2" stroke-miterlimit="10" stroke-linecap="round" stroke-linejoin="round"/>
<path d="M262.737 117.012L261.47 120.782L257.911 121.325C257.549 121.386 257.157 121.265 256.886 120.994L254.382 118.43L255.559 114.931L262.375 116.892L262.737 117.012Z" fill="black"/>
<path d="M253.357 113.243L258.122 118.098C258.273 118.249 258.454 118.309 258.665 118.279L265.391 117.254C265.904 117.163 266.085 116.56 265.753 116.198L260.988 111.343C260.837 111.192 260.656 111.131 260.445 111.162L253.719 112.187C253.206 112.278 253.025 112.881 253.357 113.243Z" fill="black" stroke="white" stroke-width="1.2" stroke-miterlimit="10" stroke-linecap="round" stroke-linejoin="round"/>
<path d="M251.788 121.054L250.854 120.692L253.689 112.76L254.624 113.092L251.788 121.054Z" fill="black"/>
<path d="M252.452 121.265L251.216 121.989C251.035 122.079 250.823 122.019 250.733 121.838L250.19 120.511C250.13 120.36 250.19 120.179 250.341 120.089L251.577 119.365C251.758 119.274 251.97 119.335 252.06 119.516L252.603 120.843C252.663 120.994 252.603 121.175 252.452 121.265Z" fill="black"/>
<path d="M153.678 96.9863C151.717 104.074 145.685 105.401 143.906 105.642C134.164 92.1305 133.471 75.0902 133.471 75.0902L139.473 71.3202C139.473 71.3202 139.653 62.9056 140.89 62.6643C142.066 62.423 142.669 72.798 142.669 72.798C142.669 72.798 146.108 69.6614 146.771 70.2948C147.435 70.9281 144.328 76.3569 144.328 77.5633C144.992 84.1382 148.671 91.2559 153.678 96.9863Z" fill="#6EDBFF" stroke="black" stroke-width="1.2" stroke-miterlimit="10" stroke-linecap="round" stroke-linejoin="round"/>
<path d="M170.839 121.476C160.193 120.119 152.592 115.444 147.133 109.563C145.957 108.296 144.902 106.999 143.937 105.642" stroke="black" stroke-width="1.2" stroke-miterlimit="10" stroke-linecap="round" stroke-linejoin="round"/>
<path d="M249.557 129.74C250.884 128.956 252 128.202 252.332 127.78C253.357 126.483 254.383 121.144 255.318 121.235C256.253 121.325 255.197 126.995 255.197 126.995C255.197 126.995 256.102 129.137 254.443 130.675" fill="#6EDBFF"/>
<path d="M249.557 129.74C250.884 128.956 252 128.202 252.332 127.78C253.357 126.483 254.383 121.144 255.318 121.235C256.253 121.325 255.197 126.995 255.197 126.995C255.197 126.995 256.102 129.137 254.443 130.675" stroke="black" stroke-width="1.2" stroke-miterlimit="10" stroke-linecap="round" stroke-linejoin="round"/>
<path d="M153.678 96.9862C154.764 98.2228 155.88 99.399 157.086 100.455C158.836 102.053 160.675 103.471 162.545 104.647C171.593 110.287 178.47 103.259 186.734 105.129C186.734 105.129 186.492 113.966 188.181 116.711C189.508 116.138 194.696 111.523 197.259 107.09C199.883 107.663 204.92 109.352 209.866 115.293C213.546 119.727 220.06 128.232 226.997 132.273" stroke="black" stroke-width="1.2" stroke-miterlimit="10" stroke-linecap="round" stroke-linejoin="round"/>
<path d="M258.816 130.373C258.816 130.373 266.567 128.172 266.959 129.046C267.351 129.921 257.67 133.088 255.498 134.505C255.167 134.716 253.9 135.591 252.874 136.345C252.09 136.918 251.366 137.521 250.612 138.124C245.968 141.925 237.945 146.69 228.385 146.69C226.032 146.69 223.77 146.328 221.599 145.695" stroke="black" stroke-width="1.2" stroke-miterlimit="10" stroke-linecap="round" stroke-linejoin="round"/>
<path d="M157.086 100.394C157.086 100.424 157.086 100.455 157.056 100.455C155.186 108.025 148.822 109.352 147.103 109.563C146.832 109.593 146.681 109.593 146.681 109.593L143.394 105.672C143.394 105.672 143.575 105.672 143.906 105.612C145.686 105.371 151.718 104.044 153.678 96.9561C153.738 96.7751 153.769 96.6243 153.799 96.4434L157.086 100.394Z" fill="white" stroke="black" stroke-width="1.2" stroke-miterlimit="10" stroke-linecap="round" stroke-linejoin="round"/>
<path d="M219.307 145.514C218.01 134.807 226.243 131.338 226.243 131.338L229.682 133.088C229.682 133.088 221.84 136.918 223.348 146.69L219.307 145.514Z" fill="white" stroke="black" stroke-width="1.2" stroke-miterlimit="10" stroke-linecap="round" stroke-linejoin="round"/>
<path d="M187.246 262.987C188.211 260.332 189.629 259.428 192.615 258.764C195.178 258.221 196.566 257.437 197.32 255.869C198.496 253.456 197.139 250.892 194.153 249.927C191.167 248.932 187.97 250.048 186.824 252.853C186.281 252.702 185.768 252.551 185.225 252.431C186.553 248.992 190.715 247.424 194.696 248.751C198.677 250.078 200.245 253.426 198.737 256.472C197.802 258.402 196.174 259.337 193.188 259.971C190.443 260.574 189.418 261.388 188.664 263.409C188.543 263.771 188.422 264.102 188.272 264.464C187.819 264.314 187.337 264.163 186.884 264.042C187.005 263.71 187.126 263.348 187.246 262.987ZM184.622 269.32C184.803 268.687 185.527 268.295 186.191 268.506C186.854 268.717 187.216 269.411 187.005 270.044C186.794 270.677 186.1 271.039 185.467 270.828C184.803 270.647 184.411 269.984 184.622 269.32Z" fill="black"/>
<path d="M118.21 55.0941C117.909 55.7878 117.517 56.4513 117.004 57.0545C117.275 56.1798 117.215 55.1544 116.853 54.3099C116.582 55.1846 116.22 55.9386 115.677 56.6624C114.561 56.6021 113.475 56.9338 112.661 57.6878C111.093 59.1054 110.972 61.5483 112.389 63.1468C112.601 63.3881 112.812 63.5992 113.023 63.75C110.52 65.8009 107.413 66.585 104.427 66.1025C104.518 66.766 104.88 67.3993 105.332 67.9422C106.237 68.9375 107.534 69.3296 108.77 69.1788C108.258 69.5407 107.685 69.8423 107.172 69.9931C107.172 69.9931 107.172 69.9931 107.232 70.0534C108.499 71.4408 110.55 71.7122 112.028 70.8074C111.847 71.0789 111.666 71.3503 111.364 71.6217C111.183 71.7725 111.002 71.9535 110.791 72.044C112.209 72.8884 113.988 72.7678 115.285 71.5916C114.983 73.2504 114.169 74.8187 112.842 76.0251C112.601 76.2362 112.389 76.4473 112.088 76.5981C114.109 76.2664 116.039 75.3314 117.637 73.9139C122.945 69.1185 121.83 62.1515 118.391 58.3514C118.301 58.2307 118.18 58.1101 118.06 57.9894C118.331 56.9942 118.331 56.029 118.21 55.0941Z" fill="black"/>
<path d="M135.311 73.2205C135.311 73.2205 135.281 79.6144 134.346 79.4033C132.868 79.0715 132.235 72.1649 135.311 73.0094" fill="#6EDBFF"/>
<path d="M135.311 73.2205C135.311 73.2205 135.281 79.6144 134.346 79.4033C132.868 79.0715 132.235 72.1649 135.311 73.0094" stroke="black" stroke-width="1.2" stroke-miterlimit="10" stroke-linecap="round" stroke-linejoin="round"/>
<path d="M137.362 72.2553C137.362 72.2553 136.608 78.3174 136.095 78.438C134.497 78.8603 133.833 70.325 137.694 71.9838" fill="#6EDBFF"/>
<path d="M137.362 72.2553C137.362 72.2553 136.608 78.3174 136.095 78.438C134.497 78.8603 133.833 70.325 137.694 71.9838" stroke="black" stroke-width="1.2" stroke-miterlimit="10" stroke-linecap="round" stroke-linejoin="round"/>
<path d="M139.473 71.3203C139.473 71.3203 139.383 77.865 138.236 78.257C136.246 77.865 136.367 70.2948 139.473 71.1393" fill="#6EDBFF"/>
<path d="M139.473 71.3203C139.473 71.3203 139.383 77.865 138.236 78.257C136.246 77.865 136.367 70.2948 139.473 71.1393" stroke="black" stroke-width="1.2" stroke-miterlimit="10" stroke-linecap="round" stroke-linejoin="round"/>
<path d="M237.885 95.6895L242.348 91.9799" stroke="black" stroke-width="1.2" stroke-miterlimit="10" stroke-linecap="round" stroke-linejoin="round"/>
</svg>
